<svg width="164" height="111" viewBox="0 0 164 111" fill="none" xmlns="http://www.w3.org/2000/svg">
<path d="M59.2997 2.89992C55.3997 4.79992 52.5997 6.79992 51.5997 8.69992C50.7997 10.1999 49.5997 12.4999 48.8997 13.7999C47.0997 17.0999 48.7997 17.8999 51.3997 14.9999C54.0997 11.9999 59.4997 7.99992 60.9997 7.99992C61.4997 7.99992 61.9997 7.39992 61.9997 6.69992C61.9997 6.09992 63.3997 4.69992 64.9997 3.79992C68.0997 2.09992 68.9997 -7.95958e-05 66.7997 -7.95958e-05C66.0997 -7.95958e-05 62.6997 1.29992 59.2997 2.89992Z" fill="url(#paint0_linear_2_235)"/>
<path d="M59.2997 2.89992C55.3997 4.79992 52.5997 6.79992 51.5997 8.69992C50.7997 10.1999 49.5997 12.4999 48.8997 13.7999C47.0997 17.0999 48.7997 17.8999 51.3997 14.9999C54.0997 11.9999 59.4997 7.99992 60.9997 7.99992C61.4997 7.99992 61.9997 7.39992 61.9997 6.69992C61.9997 6.09992 63.3997 4.69992 64.9997 3.79992C68.0997 2.09992 68.9997 -7.95958e-05 66.7997 -7.95958e-05C66.0997 -7.95958e-05 62.6997 1.29992 59.2997 2.89992Z" fill="url(#paint1_radial_2_235)" fill-opacity="0.2"/>
<path d="M89.1996 5.69998C88.3996 5.99998 86.5996 7.49998 84.9996 8.99998C83.3996 10.5 81.5996 12 80.9996 12.2C79.0996 12.8 80.9996 15.8 82.8996 15.3C83.9996 15 84.9996 15.5 85.2996 16.4C86.6996 19.9 89.7996 17.6 89.0996 13.7C88.8996 12.4 90.9996 8.99998 92.0996 8.99998C92.5996 8.99998 92.7996 10.1 92.3996 11.5C91.8996 13.7 92.0996 14 94.3996 14H97.0996L94.3996 16.7C91.2996 19.8 86.7996 20.6 84.6996 18.5C82.9996 16.9 81.8996 17.5 82.6996 19.6C82.9996 20.4 82.6996 21 82.0996 21C81.4996 21 79.1996 22.1 77.0996 23.5C73.4996 25.7 73.2996 26.1 74.2996 28.3L75.3996 30.6L88.8996 26.4C96.3996 24.1 107.3 21.4 113.2 20.5C125.3 18.5 125.5 18.2 118 11.8C114.2 8.39998 111 7.29998 111 9.29998C111 9.79998 110.1 9.99998 109 9.69998C107.9 9.39998 105.4 9.69998 103.5 10.3C100.8 11.1 99.6996 11.1 98.6996 10.1C97.6996 8.99998 97.9996 8.89998 99.9996 9.39998C102.4 10.1 102.4 9.99998 100.6 8.59998C99.4996 7.69998 97.7996 6.99998 96.8996 6.99998C95.8996 6.99998 94.7996 6.49998 94.4996 5.99998C93.7996 4.89998 91.3996 4.79998 89.1996 5.69998Z" fill="url(#paint2_linear_2_235)"/>
<path d="M89.1996 5.69998C88.3996 5.99998 86.5996 7.49998 84.9996 8.99998C83.3996 10.5 81.5996 12 80.9996 12.2C79.0996 12.8 80.9996 15.8 82.8996 15.3C83.9996 15 84.9996 15.5 85.2996 16.4C86.6996 19.9 89.7996 17.6 89.0996 13.7C88.8996 12.4 90.9996 8.99998 92.0996 8.99998C92.5996 8.99998 92.7996 10.1 92.3996 11.5C91.8996 13.7 92.0996 14 94.3996 14H97.0996L94.3996 16.7C91.2996 19.8 86.7996 20.6 84.6996 18.5C82.9996 16.9 81.8996 17.5 82.6996 19.6C82.9996 20.4 82.6996 21 82.0996 21C81.4996 21 79.1996 22.1 77.0996 23.5C73.4996 25.7 73.2996 26.1 74.2996 28.3L75.3996 30.6L88.8996 26.4C96.3996 24.1 107.3 21.4 113.2 20.5C125.3 18.5 125.5 18.2 118 11.8C114.2 8.39998 111 7.29998 111 9.29998C111 9.79998 110.1 9.99998 109 9.69998C107.9 9.39998 105.4 9.69998 103.5 10.3C100.8 11.1 99.6996 11.1 98.6996 10.1C97.6996 8.99998 97.9996 8.89998 99.9996 9.39998C102.4 10.1 102.4 9.99998 100.6 8.59998C99.4996 7.69998 97.7996 6.99998 96.8996 6.99998C95.8996 6.99998 94.7996 6.49998 94.4996 5.99998C93.7996 4.89998 91.3996 4.79998 89.1996 5.69998Z" fill="url(#paint3_radial_2_235)" fill-opacity="0.2"/>
<path d="M64.0002 9C62.8002 9.8 62.9002 10 64.7002 10C65.9002 10 67.2002 9.5 67.5002 9C68.3002 7.7 66.0002 7.7 64.0002 9Z" fill="url(#paint4_linear_2_235)"/>
<path d="M64.0002 9C62.8002 9.8 62.9002 10 64.7002 10C65.9002 10 67.2002 9.5 67.5002 9C68.3002 7.7 66.0002 7.7 64.0002 9Z" fill="url(#paint5_radial_2_235)" fill-opacity="0.2"/>
<path d="M43.0996 14.3999C42.2996 15.3999 42.1996 15.9999 42.9996 16.4999C43.4996 16.7999 44.2996 16.3999 44.5996 15.4999C45.4996 13.2999 44.4996 12.5999 43.0996 14.3999Z" fill="url(#paint6_linear_2_235)"/>
<path d="M43.0996 14.3999C42.2996 15.3999 42.1996 15.9999 42.9996 16.4999C43.4996 16.7999 44.2996 16.3999 44.5996 15.4999C45.4996 13.2999 44.4996 12.5999 43.0996 14.3999Z" fill="url(#paint7_radial_2_235)" fill-opacity="0.2"/>
<path d="M72 17.1999C72 18.0999 72.6 19.0999 73.3 19.2999C74.2 19.6999 74.2 20.0999 73.1 20.7999C71.6 21.8999 73.3 23.4999 75 22.4999C76.4 21.5999 76.2 20.8999 74 17.9999C72.5 16.0999 72 15.8999 72 17.1999Z" fill="url(#paint8_linear_2_235)"/>
<path d="M72 17.1999C72 18.0999 72.6 19.0999 73.3 19.2999C74.2 19.6999 74.2 20.0999 73.1 20.7999C71.6 21.8999 73.3 23.4999 75 22.4999C76.4 21.5999 76.2 20.8999 74 17.9999C72.5 16.0999 72 15.8999 72 17.1999Z" fill="url(#paint9_radial_2_235)" fill-opacity="0.2"/>
<path d="M69.0004 20.4999C68.3004 21.3999 67.9004 22.2999 68.2004 22.4999C68.5004 22.7999 69.3004 22.3999 70.0004 21.4999C70.7004 20.5999 71.1004 19.6999 70.8004 19.4999C70.5004 19.1999 69.7004 19.5999 69.0004 20.4999Z" fill="url(#paint10_linear_2_235)"/>
<path d="M69.0004 20.4999C68.3004 21.3999 67.9004 22.2999 68.2004 22.4999C68.5004 22.7999 69.3004 22.3999 70.0004 21.4999C70.7004 20.5999 71.1004 19.6999 70.8004 19.4999C70.5004 19.1999 69.7004 19.5999 69.0004 20.4999Z" fill="url(#paint11_radial_2_235)" fill-opacity="0.2"/>
<path d="M112.5 21.6C58.3 31.6 0 69.7 0 95C0 102.2 4.8 108.1 12.7 110.4C14.4 110.9 14 110.2 10.9 107.2C7.2 103.5 7 102.9 7 97.4C7 90.3 9.2 85.1 15.6 77C30.7 57.7 66.2 37.5 100.5 28.6C105.9 27.2 111.3 26 112.5 26.1C113.6 26.1 111.8 26.8 108.5 27.6C97.7 30.2 92 32 92 33C92 33.5 93.1 35.2 94.5 36.7L97.1 39.5L96.8 37C96.6 35.5 97 34.5 97.8 34.5C98.5 34.5 99.6 35.6 100.3 37C101.3 39 102.2 39.4 104.8 39.2C108.3 38.8 109 40.4 106.9 43.9C105.9 45.3 105 45.5 102.1 45C100.1 44.6 97.8 43.9 96.9 43.6C95.9 43.1 95 43.5 94.7 44.4C94.1 45.8 93.5 45.7 89.5 43.8C87 42.6 85 41 85 40.3C85 38.7 78.2 38.6 74.3 40.1C68.7 42.4 67 43.4 67 44.3C67 44.8 65.4 47 63.5 49.1C60.5 52.5 60 53.7 60 57.9C60 61.7 60.6 63.5 62.4 65.7C65.2 69 71.1 71.1 75.2 70.3C76.7 70 78.8 70.1 79.7 70.5C80.7 71 82 71.2 82.6 71.1C83.8 71 84.5 73.9 85.9 85C86.9 93.6 88.3 96 92.1 96C95.8 96 100 93.9 102 91C102.8 89.8 104.7 87.5 106.3 85.9C108 84.1 109 81.9 109 80.1C109 78.4 109.5 76.8 110 76.5C111.9 75.3 119 65.9 119 64.5C119 63.8 118.1 63.4 116.6 63.7C113.7 64.3 111.2 61 108.2 52.8C105.6 45.3 107.4 46.5 111.1 54.6C112.7 58 114.4 61.1 115 61.5C116.4 62.4 120.5 59.7 122.5 56.6C124.2 54.1 123.5 50.6 121.5 51.4C120 51.9 118 50.1 118 48.2C118 47.2 118.8 47.4 120.9 48.9C122.5 50.1 124.4 51 125.2 51C127.6 51 130 54.9 130 58.8L130.1 62.5L131.5 58.5C132.3 56.3 133 54.3 133.1 54C133.2 53.7 133.6 55.3 134 57.5C134.5 60.5 134.7 59.2 134.9 52C135 42.1 134.2 37.8 130.8 29.7L128.7 24.9L121.6 25.4L114.5 25.9L120 24.9C127.5 23.5 145.3 24.4 151.3 26.5C154 27.5 157.9 29.9 160.1 32C162.8 34.5 164 35.2 164 34.1C164 30.5 160 26.2 154.3 23.4C148.9 20.7 147.6 20.5 134.5 20.3C125.5 20.2 117.7 20.6 112.5 21.6Z" fill="url(#paint12_linear_2_235)"/>
<path d="M112.5 21.6C58.3 31.6 0 69.7 0 95C0 102.2 4.8 108.1 12.7 110.4C14.4 110.9 14 110.2 10.9 107.2C7.2 103.5 7 102.9 7 97.4C7 90.3 9.2 85.1 15.6 77C30.7 57.7 66.2 37.5 100.5 28.6C105.9 27.2 111.3 26 112.5 26.1C113.6 26.1 111.8 26.8 108.5 27.6C97.7 30.2 92 32 92 33C92 33.5 93.1 35.2 94.5 36.7L97.1 39.5L96.8 37C96.6 35.5 97 34.5 97.8 34.5C98.5 34.5 99.6 35.6 100.3 37C101.3 39 102.2 39.4 104.8 39.2C108.3 38.8 109 40.4 106.9 43.9C105.9 45.3 105 45.5 102.1 45C100.1 44.6 97.8 43.9 96.9 43.6C95.9 43.1 95 43.5 94.7 44.4C94.1 45.8 93.5 45.7 89.5 43.8C87 42.6 85 41 85 40.3C85 38.7 78.2 38.6 74.3 40.1C68.7 42.4 67 43.4 67 44.3C67 44.8 65.4 47 63.5 49.1C60.5 52.5 60 53.7 60 57.9C60 61.7 60.6 63.5 62.4 65.7C65.2 69 71.1 71.1 75.2 70.3C76.7 70 78.8 70.1 79.7 70.5C80.7 71 82 71.2 82.6 71.1C83.8 71 84.5 73.9 85.9 85C86.9 93.6 88.3 96 92.1 96C95.8 96 100 93.9 102 91C102.8 89.8 104.7 87.5 106.3 85.9C108 84.1 109 81.9 109 80.1C109 78.4 109.5 76.8 110 76.5C111.9 75.3 119 65.9 119 64.5C119 63.8 118.1 63.4 116.6 63.7C113.7 64.3 111.2 61 108.2 52.8C105.6 45.3 107.4 46.5 111.1 54.6C112.7 58 114.4 61.1 115 61.5C116.4 62.4 120.5 59.7 122.5 56.6C124.2 54.1 123.5 50.6 121.5 51.4C120 51.9 118 50.1 118 48.2C118 47.2 118.8 47.4 120.9 48.9C122.5 50.1 124.4 51 125.2 51C127.6 51 130 54.9 130 58.8L130.1 62.5L131.5 58.5C132.3 56.3 133 54.3 133.1 54C133.2 53.7 133.6 55.3 134 57.5C134.5 60.5 134.7 59.2 134.9 52C135 42.1 134.2 37.8 130.8 29.7L128.7 24.9L121.6 25.4L114.5 25.9L120 24.9C127.5 23.5 145.3 24.4 151.3 26.5C154 27.5 157.9 29.9 160.1 32C162.8 34.5 164 35.2 164 34.1C164 30.5 160 26.2 154.3 23.4C148.9 20.7 147.6 20.5 134.5 20.3C125.5 20.2 117.7 20.6 112.5 21.6Z" fill="url(#paint13_radial_2_235)" fill-opacity="0.2"/>
<path d="M36.1005 27.9C35.0005 30.4 34.1005 31.8 34.0005 31C34.0005 28.1 32.1005 31.6 30.6005 37.5C28.8005 44.2 28.5005 51 30.0005 51C30.6005 51 31.0005 50.3 31.0005 49.5C31.0005 47 34.1005 38.6 35.7005 36.8C36.6005 35.8 37.0005 34.4 36.7005 33.6C35.9005 31.6 38.8005 29.1 40.0005 30.9C40.5005 31.8 41.0005 31.9 41.4005 31.1C41.8005 30.5 41.7005 30 41.3005 30C40.8005 30 40.6005 28.5 40.8005 26.7C41.4005 21.6 38.5005 22.4 36.1005 27.9Z" fill="url(#paint14_linear_2_235)"/>
<path d="M36.1005 27.9C35.0005 30.4 34.1005 31.8 34.0005 31C34.0005 28.1 32.1005 31.6 30.6005 37.5C28.8005 44.2 28.5005 51 30.0005 51C30.6005 51 31.0005 50.3 31.0005 49.5C31.0005 47 34.1005 38.6 35.7005 36.8C36.6005 35.8 37.0005 34.4 36.7005 33.6C35.9005 31.6 38.8005 29.1 40.0005 30.9C40.5005 31.8 41.0005 31.9 41.4005 31.1C41.8005 30.5 41.7005 30 41.3005 30C40.8005 30 40.6005 28.5 40.8005 26.7C41.4005 21.6 38.5005 22.4 36.1005 27.9Z" fill="url(#paint15_radial_2_235)" fill-opacity="0.2"/>
<path d="M89.2 35C90.6 37.2 91.6 36.9 90.7 34.5C90.3 33.7 89.6 33 89 33C88.4 33 88.4 33.7 89.2 35Z" fill="url(#paint16_linear_2_235)"/>
<path d="M89.2 35C90.6 37.2 91.6 36.9 90.7 34.5C90.3 33.7 89.6 33 89 33C88.4 33 88.4 33.7 89.2 35Z" fill="url(#paint17_radial_2_235)" fill-opacity="0.2"/>
<path d="M33.4996 63.8999C33.1996 64.4999 32.2996 64.6999 31.4996 64.3999C30.1996 63.8999 30.1996 64.2999 31.3996 67.6999C35.2996 78.6999 44.3996 90.9999 52.0996 95.3999L55.2996 97.2999L53.7996 95.0999C52.0996 92.6999 52.5996 87.9999 54.4996 87.9999C55.4996 87.9999 55.7996 86.5999 55.4996 82.6999C55.3996 79.8999 55.1996 77.1999 55.0996 76.7999C54.9996 75.9999 45.7996 72.3999 44.7996 72.7999C44.2996 72.8999 43.9996 72.3999 43.9996 71.6999C43.9996 70.8999 42.2996 68.9999 40.2996 67.3999C35.0996 63.2999 34.1996 62.7999 33.4996 63.8999Z" fill="url(#paint18_linear_2_235)"/>
<path d="M33.4996 63.8999C33.1996 64.4999 32.2996 64.6999 31.4996 64.3999C30.1996 63.8999 30.1996 64.2999 31.3996 67.6999C35.2996 78.6999 44.3996 90.9999 52.0996 95.3999L55.2996 97.2999L53.7996 95.0999C52.0996 92.6999 52.5996 87.9999 54.4996 87.9999C55.4996 87.9999 55.7996 86.5999 55.4996 82.6999C55.3996 79.8999 55.1996 77.1999 55.0996 76.7999C54.9996 75.9999 45.7996 72.3999 44.7996 72.7999C44.2996 72.8999 43.9996 72.3999 43.9996 71.6999C43.9996 70.8999 42.2996 68.9999 40.2996 67.3999C35.0996 63.2999 34.1996 62.7999 33.4996 63.8999Z" fill="url(#paint19_radial_2_235)" fill-opacity="0.2"/>
<defs>
<linearGradient id="paint0_linear_2_235" x1="53.4819" y1="2.00119" x2="65.0188" y2="11.9807" gradientUnits="userSpaceOnUse">
<stop stop-color="#015EA3"/>
<stop offset="0.500295" stop-color="#013053"/>
<stop offset="0.66" stop-color="#002B4B"/>
<stop offset="1" stop-color="#00233D"/>
</linearGradient>
<radialGradient id="paint1_radial_2_235" cx="0" cy="0" r="1" gradientUnits="userSpaceOnUse" gradientTransform="translate(55.9645 1.03284) rotate(82.3373) scale(15.8939 18.8525)">
<stop stop-opacity="0"/>
<stop offset="1"/>
</radialGradient>
<linearGradient id="paint2_linear_2_235" x1="87.0044" y1="8.13376" x2="103.714" y2="31.7386" gradientUnits="userSpaceOnUse">
<stop stop-color="#015EA3"/>
<stop offset="0.500295" stop-color="#013053"/>
<stop offset="0.66" stop-color="#002B4B"/>
<stop offset="1" stop-color="#00233D"/>
</linearGradient>
<radialGradient id="paint3_radial_2_235" cx="0" cy="0" r="1" gradientUnits="userSpaceOnUse" gradientTransform="translate(93.1657 6.66217) rotate(77.6079) scale(24.5088 46.1086)">
<stop stop-opacity="0"/>
<stop offset="1"/>
</radialGradient>
<linearGradient id="paint4_linear_2_235" x1="64.4012" y1="8.26048" x2="65.6172" y2="10.2671" gradientUnits="userSpaceOnUse">
<stop stop-color="#015EA3"/>
<stop offset="0.500295" stop-color="#013053"/>
<stop offset="0.66" stop-color="#002B4B"/>
<stop offset="1" stop-color="#00233D"/>
</linearGradient>
<radialGradient id="paint5_radial_2_235" cx="0" cy="0" r="1" gradientUnits="userSpaceOnUse" gradientTransform="translate(64.9584 8.14654) rotate(75.6049) scale(1.91354 4.13585)">
<stop stop-opacity="0"/>
<stop offset="1"/>
</radialGradient>
<linearGradient id="paint6_linear_2_235" x1="43.1168" y1="13.7596" x2="45.0361" y2="14.846" gradientUnits="userSpaceOnUse">
<stop stop-color="#015EA3"/>
<stop offset="0.500295" stop-color="#013053"/>
<stop offset="0.66" stop-color="#002B4B"/>
<stop offset="1" stop-color="#00233D"/>
</linearGradient>
<radialGradient id="paint7_radial_2_235" cx="0" cy="0" r="1" gradientUnits="userSpaceOnUse" gradientTransform="translate(43.4287 13.5737) rotate(84.9689) scale(3.03642 2.38088)">
<stop stop-opacity="0"/>
<stop offset="1"/>
</radialGradient>
<linearGradient id="paint8_linear_2_235" x1="73.0431" y1="17.139" x2="76.3484" y2="18.5965" gradientUnits="userSpaceOnUse">
<stop stop-color="#015EA3"/>
<stop offset="0.500295" stop-color="#013053"/>
<stop offset="0.66" stop-color="#002B4B"/>
<stop offset="1" stop-color="#00233D"/>
</linearGradient>
<radialGradient id="paint9_radial_2_235" cx="0" cy="0" r="1" gradientUnits="userSpaceOnUse" gradientTransform="translate(73.529 16.7671) rotate(86.0762) scale(6.0625 3.71483)">
<stop stop-opacity="0"/>
<stop offset="1"/>
</radialGradient>
<linearGradient id="paint10_linear_2_235" x1="68.8512" y1="19.7826" x2="70.8684" y2="21.0748" gradientUnits="userSpaceOnUse">
<stop stop-color="#015EA3"/>
<stop offset="0.500295" stop-color="#013053"/>
<stop offset="0.66" stop-color="#002B4B"/>
<stop offset="1" stop-color="#00233D"/>
</linearGradient>
<radialGradient id="paint11_radial_2_235" cx="0" cy="0" r="1" gradientUnits="userSpaceOnUse" gradientTransform="translate(69.2014 19.5981) rotate(84.3098) scale(3.0151 2.67003)">
<stop stop-opacity="0"/>
<stop offset="1"/>
</radialGradient>
<linearGradient id="paint12_linear_2_235" x1="44" y1="31.0471" x2="104.251" y2="111.074" gradientUnits="userSpaceOnUse">
<stop stop-color="#015EA3"/>
<stop offset="0.500295" stop-color="#013053"/>
<stop offset="0.66" stop-color="#002B4B"/>
<stop offset="1" stop-color="#00233D"/>
</linearGradient>
<radialGradient id="paint13_radial_2_235" cx="0" cy="0" r="1" gradientUnits="userSpaceOnUse" gradientTransform="translate(64.5 25.8397) rotate(78.3273) scale(86.4966 153.826)">
<stop stop-opacity="0"/>
<stop offset="1"/>
</radialGradient>
<linearGradient id="paint14_linear_2_235" x1="32.4246" y1="26.5937" x2="43.958" y2="30.432" gradientUnits="userSpaceOnUse">
<stop stop-color="#015EA3"/>
<stop offset="0.500295" stop-color="#013053"/>
<stop offset="0.66" stop-color="#002B4B"/>
<stop offset="1" stop-color="#00233D"/>
</linearGradient>
<radialGradient id="paint15_radial_2_235" cx="0" cy="0" r="1" gradientUnits="userSpaceOnUse" gradientTransform="translate(34.0014 24.995) rotate(87.0368) scale(26.0398 12.0662)">
<stop stop-opacity="0"/>
<stop offset="1"/>
</radialGradient>
<linearGradient id="paint16_linear_2_235" x1="89.2352" y1="33.4159" x2="91.2137" y2="34.4405" gradientUnits="userSpaceOnUse">
<stop stop-color="#015EA3"/>
<stop offset="0.500295" stop-color="#013053"/>
<stop offset="0.66" stop-color="#002B4B"/>
<stop offset="1" stop-color="#00233D"/>
</linearGradient>
<radialGradient id="paint17_radial_2_235" cx="0" cy="0" r="1" gradientUnits="userSpaceOnUse" gradientTransform="translate(89.544 33.2147) rotate(85.395) scale(3.28396 2.35884)">
<stop stop-opacity="0"/>
<stop offset="1"/>
</radialGradient>
<linearGradient id="paint18_linear_2_235" x1="37.2456" y1="67.4378" x2="56.9602" y2="78.1067" gradientUnits="userSpaceOnUse">
<stop stop-color="#015EA3"/>
<stop offset="0.500295" stop-color="#013053"/>
<stop offset="0.66" stop-color="#002B4B"/>
<stop offset="1" stop-color="#00233D"/>
</linearGradient>
<radialGradient id="paint19_radial_2_235" cx="0" cy="0" r="1" gradientUnits="userSpaceOnUse" gradientTransform="translate(40.3829 65.4818) rotate(85.1886) scale(31.9306 23.9543)">
<stop stop-opacity="0"/>
<stop offset="1"/>
</radialGradient>
</defs>
</svg>
